<!DOCTYPE svg PUBLIC "-//W3C//DTD SVG 1.1//EN" "http://www.w3.org/Graphics/SVG/1.1/DTD/svg11.dtd">
<!-- Uploaded to: SVG Repo, www.svgrepo.com, Transformed by: SVG Repo Mixer Tools -->
<svg width="800px" height="800px" viewBox="0 0 14 14" xmlns="http://www.w3.org/2000/svg" fill="#000000">
<g id="SVGRepo_bgCarrier" stroke-width="0"/>
<g id="SVGRepo_tracerCarrier" stroke-linecap="round" stroke-linejoin="round"/>
<g id="SVGRepo_iconCarrier"> <path d="M7 14A7 7 0 107 0a7 7 0 000 14z" fill="#4762ff"/> <path d="M7 13A6 6 0 107 1a6 6 0 000 12z" fill="#ffffff"/> <path d="M6.995 10.64a3.645 3.645 0 110-7.29 3.645 3.645 0 010 7.29zm0-1.042a2.603 2.603 0 100-5.206 2.603 2.603 0 000 5.206z" fill="#4762ff"/> <path d="M7.033 4.92h-.065a.488.488 0 00-.488.488v1.627c0 .27.218.488.488.488h.065c.27 0 .488-.218.488-.488V5.408a.488.488 0 00-.488-.488z" fill="#4762ff"/> <path d="M8.075 6.48H6.968a.488.488 0 00-.488.488v.065c0 .27.218.488.488.488h1.107c.27 0 .488-.218.488-.488v-.065a.488.488 0 00-.488-.488z" fill="#4762ff"/> </g>
</svg>